<svg xmlns="http://www.w3.org/2000/svg" xmlns:xlink="http://www.w3.org/1999/xlink" width="131" height="129" viewBox="0 0 131 129">
  <defs>
    <clipPath id="clip-path">
      <rect width="180" height="180" fill="none"/>
    </clipPath>
  </defs>
  <g id="リピートグリッド_6" data-name="リピートグリッド 6" clip-path="url(#clip-path)">
    <g transform="translate(-677 -2340)">
      <circle id="楕円形_361" data-name="楕円形 361" cx="2" cy="2" r="2" transform="translate(677 2340)" fill="#000"/>
    </g>
    <g transform="translate(-653 -2340)">
      <circle id="楕円形_361-2" data-name="楕円形 361" cx="2" cy="2" r="2" transform="translate(677 2340)" fill="#3144c4"/>
    </g>
    <g transform="translate(-629 -2340)">
      <circle id="楕円形_361-3" data-name="楕円形 361" cx="2" cy="2" r="2" transform="translate(677 2340)" fill="#3144c4"/>
    </g>
    <g transform="translate(-605 -2340)">
      <circle id="楕円形_361-4" data-name="楕円形 361" cx="2" cy="2" r="2" transform="translate(677 2340)" fill="#3144c4"/>
    </g>
    <g transform="translate(-581 -2340)">
      <circle id="楕円形_361-5" data-name="楕円形 361" cx="2" cy="2" r="2" transform="translate(677 2340)" fill="#3144c4"/>
    </g>
    <g transform="translate(-557 -2340)">
      <circle id="楕円形_361-6" data-name="楕円形 361" cx="2" cy="2" r="2" transform="translate(677 2340)" fill="#3144c4"/>
    </g>
    <g transform="translate(-677 -2316)">
      <circle id="楕円形_361-7" data-name="楕円形 361" cx="2" cy="2" r="2" transform="translate(677 2340)" fill="#3144c4"/>
    </g>
    <g transform="translate(-653 -2316)">
      <circle id="楕円形_361-8" data-name="楕円形 361" cx="2" cy="2" r="2" transform="translate(677 2340)" fill="#3144c4"/>
    </g>
    <g transform="translate(-629 -2316)">
      <circle id="楕円形_361-9" data-name="楕円形 361" cx="2" cy="2" r="2" transform="translate(677 2340)" fill="#3144c4"/>
    </g>
    <g transform="translate(-605 -2316)">
      <circle id="楕円形_361-10" data-name="楕円形 361" cx="2" cy="2" r="2" transform="translate(677 2340)" fill="#3144c4"/>
    </g>
    <g transform="translate(-581 -2316)">
      <circle id="楕円形_361-11" data-name="楕円形 361" cx="2" cy="2" r="2" transform="translate(677 2340)" fill="#3144c4"/>
    </g>
    <g transform="translate(-557 -2316)">
      <circle id="楕円形_361-12" data-name="楕円形 361" cx="2" cy="2" r="2" transform="translate(677 2340)" fill="#3144c4"/>
    </g>
    <g transform="translate(-677 -2292)">
      <circle id="楕円形_361-13" data-name="楕円形 361" cx="2" cy="2" r="2" transform="translate(677 2340)" fill="#3144c4"/>
    </g>
    <g transform="translate(-653 -2292)">
      <circle id="楕円形_361-14" data-name="楕円形 361" cx="2" cy="2" r="2" transform="translate(677 2340)" fill="#3144c4"/>
    </g>
    <g transform="translate(-629 -2292)">
      <circle id="楕円形_361-15" data-name="楕円形 361" cx="2" cy="2" r="2" transform="translate(677 2340)" fill="#3144c4"/>
    </g>
    <g transform="translate(-605 -2292)">
      <circle id="楕円形_361-16" data-name="楕円形 361" cx="2" cy="2" r="2" transform="translate(677 2340)" fill="#3144c4"/>
    </g>
    <g transform="translate(-581 -2292)">
      <circle id="楕円形_361-17" data-name="楕円形 361" cx="2" cy="2" r="2" transform="translate(677 2340)" fill="#3144c4"/>
    </g>
    <g transform="translate(-557 -2292)">
      <circle id="楕円形_361-18" data-name="楕円形 361" cx="2" cy="2" r="2" transform="translate(677 2340)" fill="#3144c4"/>
    </g>
    <g transform="translate(-677 -2268)">
      <circle id="楕円形_361-19" data-name="楕円形 361" cx="2" cy="2" r="2" transform="translate(677 2340)" fill="#3144c4"/>
    </g>
    <g transform="translate(-653 -2268)">
      <circle id="楕円形_361-20" data-name="楕円形 361" cx="2" cy="2" r="2" transform="translate(677 2340)" fill="#3144c4"/>
    </g>
    <g transform="translate(-629 -2268)">
      <circle id="楕円形_361-21" data-name="楕円形 361" cx="2" cy="2" r="2" transform="translate(677 2340)" fill="#3144c4"/>
    </g>
    <g transform="translate(-605 -2268)">
      <circle id="楕円形_361-22" data-name="楕円形 361" cx="2" cy="2" r="2" transform="translate(677 2340)" fill="#3144c4"/>
    </g>
    <g transform="translate(-581 -2268)">
      <circle id="楕円形_361-23" data-name="楕円形 361" cx="2" cy="2" r="2" transform="translate(677 2340)" fill="#3144c4"/>
    </g>
    <g transform="translate(-557 -2268)">
      <circle id="楕円形_361-24" data-name="楕円形 361" cx="2" cy="2" r="2" transform="translate(677 2340)" fill="#3144c4"/>
    </g>
    <g transform="translate(-677 -2244)">
      <circle id="楕円形_361-25" data-name="楕円形 361" cx="2" cy="2" r="2" transform="translate(677 2340)" fill="#3144c4"/>
    </g>
    <g transform="translate(-653 -2244)">
      <circle id="楕円形_361-26" data-name="楕円形 361" cx="2" cy="2" r="2" transform="translate(677 2340)" fill="#3144c4"/>
    </g>
    <g transform="translate(-629 -2244)">
      <circle id="楕円形_361-27" data-name="楕円形 361" cx="2" cy="2" r="2" transform="translate(677 2340)" fill="#3144c4"/>
    </g>
    <g transform="translate(-605 -2244)">
      <circle id="楕円形_361-28" data-name="楕円形 361" cx="2" cy="2" r="2" transform="translate(677 2340)" fill="#3144c4"/>
    </g>
    <g transform="translate(-581 -2244)">
      <circle id="楕円形_361-29" data-name="楕円形 361" cx="2" cy="2" r="2" transform="translate(677 2340)" fill="#3144c4"/>
    </g>
    <g transform="translate(-557 -2244)">
      <circle id="楕円形_361-30" data-name="楕円形 361" cx="2" cy="2" r="2" transform="translate(677 2340)" fill="#3144c4"/>
    </g>
    <g transform="translate(-677 -2220)">
      <circle id="楕円形_361-31" data-name="楕円形 361" cx="2" cy="2" r="2" transform="translate(677 2340)" fill="#3144c4"/>
    </g>
    <g transform="translate(-653 -2220)">
      <circle id="楕円形_361-32" data-name="楕円形 361" cx="2" cy="2" r="2" transform="translate(677 2340)" fill="#3144c4"/>
    </g>
    <g transform="translate(-629 -2220)">
      <circle id="楕円形_361-33" data-name="楕円形 361" cx="2" cy="2" r="2" transform="translate(677 2340)" fill="#3144c4"/>
    </g>
    <g transform="translate(-605 -2220)">
      <circle id="楕円形_361-34" data-name="楕円形 361" cx="2" cy="2" r="2" transform="translate(677 2340)" fill="#3144c4"/>
    </g>
    <g transform="translate(-581 -2220)">
      <circle id="楕円形_361-35" data-name="楕円形 361" cx="2" cy="2" r="2" transform="translate(677 2340)" fill="#3144c4"/>
    </g>
    <g transform="translate(-557 -2220)">
      <circle id="楕円形_361-36" data-name="楕円形 361" cx="2" cy="2" r="2" transform="translate(677 2340)" fill="#3144c4"/>
    </g>
  </g>
</svg>
