<svg xmlns="http://www.w3.org/2000/svg" viewBox="0 0 317.48 77.97"><defs><style>.cls-1{fill:#f2f2f2;}</style></defs><g id="レイヤー_2" data-name="レイヤー 2"><g id="レイヤー_1-2" data-name="レイヤー 1"><path class="cls-1" d="M107.39,0H83V24.27a29.29,29.29,0,1,1-58.58,0V0H0V24.27a53.7,53.7,0,1,0,107.39,0v.14H121.5V0Z"/><path class="cls-1" d="M182.89,50.1A14,14,0,0,1,180.54,55a11.21,11.21,0,0,1-4.16,3.32,14.2,14.2,0,0,1-6.15,1.22,13.8,13.8,0,0,1-6.09-1.22A11.07,11.07,0,0,1,160.07,55a13.53,13.53,0,0,1-2.27-4.93,25.71,25.71,0,0,1-.7-6.1V19.3H166V43.23a23.08,23.08,0,0,0,.2,3.1,8.13,8.13,0,0,0,.69,2.46,4.34,4.34,0,0,0,1.33,1.64,4.13,4.13,0,0,0,4.32,0,4.25,4.25,0,0,0,1.33-1.64,8.13,8.13,0,0,0,.69-2.46,23.08,23.08,0,0,0,.2-3.1V19.3h8.86V44A23.76,23.76,0,0,1,182.89,50.1Z"/><path class="cls-1" d="M206.9,58.52l-9.08-23.88h-.17l.23,23.88H190V19.3h9.74l9,24.2h.17l-.17-24.2h7.65V58.52Z"/><path class="cls-1" d="M223.36,58.52V19.3h8.92V58.52Z"/><path class="cls-1" d="M251.61,26.83V58.52h-8.7V26.83h-7.2V19.3h23.1v7.53Z"/><path class="cls-1" d="M262.25,58.52V19.3h18.94v7.81H270.72v7.7h9.64v7.31h-9.64v8.42h11.14v8Z"/><path class="cls-1" d="M300.25,58.52A13.75,13.75,0,0,1,294,57.16a12.94,12.94,0,0,1-4.66-3.91,18.05,18.05,0,0,1-2.9-6.23,31.65,31.65,0,0,1-1-8.33,31.3,31.3,0,0,1,1.05-8.42,19.44,19.44,0,0,1,3-6.43,14,14,0,0,1,4.76-4.13,14,14,0,0,1,12.5,0,13.94,13.94,0,0,1,4.7,4.1,19.26,19.26,0,0,1,3,6.32,30.5,30.5,0,0,1,1,8.17,21.93,21.93,0,0,1-.36,4,25.68,25.68,0,0,1-.94,3.68,15.41,15.41,0,0,1-1.35,3,7.43,7.43,0,0,1-1.61,1.94v.22l6.26-.22v7.65Zm6.31-19.81a27.31,27.31,0,0,0-.38-4.66A14.81,14.81,0,0,0,305,30.3a6.71,6.71,0,0,0-1.88-2.47,4.1,4.1,0,0,0-2.58-.89,4.18,4.18,0,0,0-2.63.89,6.61,6.61,0,0,0-1.88,2.47A15,15,0,0,0,294.93,34a28.27,28.27,0,0,0,0,9.36,15.07,15.07,0,0,0,1.14,3.75A6.94,6.94,0,0,0,298,49.62a4.09,4.09,0,0,0,2.63.92,4,4,0,0,0,2.63-.94A7.16,7.16,0,0,0,305.1,47a14.54,14.54,0,0,0,1.1-3.75A27.53,27.53,0,0,0,306.56,38.71Z"/><path class="cls-1" d="M38.51,0H68.88a0,0,0,0,1,0,0V31.23a8.22,8.22,0,0,1-8.22,8.22H46.73a8.22,8.22,0,0,1-8.22-8.22V0A0,0,0,0,1,38.51,0Z"/></g></g></svg>